<svg width="24" height="24" viewBox="0 0 24 24" fill="none" xmlns="http://www.w3.org/2000/svg">
<circle cx="12" cy="12" r="12" fill="#9F3AFD"/>
<path fill-rule="evenodd" clip-rule="evenodd" d="M8.46163 8.78105C9.39872 7.85499 10.6713 7.33333 12 7.33333C13.3286 7.33333 14.6012 7.85499 15.5383 8.78105C16.4751 9.70686 17 10.9608 17 12.2667V12.6665H15.7777C15.2867 12.6665 14.8043 12.8429 14.4393 13.1742C14.0721 13.5075 13.8518 13.9741 13.8518 14.476V16.1903C13.8518 16.6922 14.0721 17.1589 14.4393 17.4921C14.8043 17.8234 15.2867 17.9998 15.7777 17.9998H16.4074C16.8984 17.9998 17.3808 17.8234 17.7458 17.4921C18.113 17.1589 18.3333 16.6922 18.3333 16.1903V16V13.3332V12.2667C18.3333 10.6021 17.6641 9.00729 16.4755 7.83268C15.2872 6.65834 13.6771 6 12 6C10.3228 6 8.71273 6.65834 7.52441 7.83268C6.33583 9.00729 5.66663 10.6021 5.66663 12.2667V13.3332V16V16.1903C5.66663 16.6922 5.8869 17.1589 6.25409 17.4921C6.61912 17.8234 7.10151 17.9998 7.59255 17.9998H8.22218C8.71322 17.9998 9.19561 17.8234 9.56065 17.4921C9.92783 17.1589 10.1481 16.6922 10.1481 16.1903V14.476C10.1481 13.9741 9.92783 13.5075 9.56065 13.1742C9.19561 12.8429 8.71322 12.6665 8.22218 12.6665H6.99996V12.2667C6.99996 10.9608 7.5248 9.70686 8.46163 8.78105ZM6.99996 13.9998V16V16.1903C6.99996 16.2946 7.04503 16.4094 7.15016 16.5048C7.25744 16.6021 7.41564 16.6665 7.59255 16.6665H8.22218C8.39909 16.6665 8.5573 16.6021 8.66458 16.5048C8.76971 16.4094 8.81477 16.2946 8.81477 16.1903V14.476C8.81477 14.3718 8.76971 14.257 8.66458 14.1616C8.5573 14.0642 8.39909 13.9998 8.22218 13.9998H6.99996ZM17 13.9998H15.7777C15.6008 13.9998 15.4426 14.0642 15.3353 14.1616C15.2302 14.257 15.1851 14.3718 15.1851 14.476V16.1903C15.1851 16.2946 15.2302 16.4094 15.3353 16.5048C15.4426 16.6021 15.6008 16.6665 15.7777 16.6665H16.4074C16.5843 16.6665 16.7425 16.6021 16.8498 16.5048C16.9549 16.4094 17 16.2946 17 16.1903V16V13.9998Z" fill="white" fill-opacity="0.7"/>
</svg>
