<?xml version="1.0" standalone="no"?>
<!DOCTYPE svg PUBLIC "-//W3C//DTD SVG 1.1//EN" "http://www.w3.org/Graphics/SVG/1.1/DTD/svg11.dtd">
<svg width="22" height="22" viewBox="0 0 22 22" fill="none" xmlns="http://www.w3.org/2000/svg">
    <circle cx="11" cy="11" r="10.5" fill="#D2D2D2" fill-opacity="0.8" stroke="white" />
    <path
        d="M17.4715 16.5286L15.2128 14.2699C15.9387 13.3398 16.3331 12.1938 16.3335 11.0139H15.0001C14.9997 11.8402 14.7412 12.6457 14.2608 13.3179L13.2928 12.3499C13.5248 11.9559 13.6668 11.5033 13.6668 11.0139V7.01395C13.6668 5.53595 12.4768 4.33328 11.0141 4.33328C10.9675 4.33328 10.9208 4.33928 10.8748 4.34995C10.1903 4.38298 9.54461 4.67798 9.07154 5.17387C8.59848 5.66977 8.33422 6.3286 8.33347 7.01395V7.39062L5.47148 4.52862L4.52881 5.47128L16.5288 17.4713L17.4715 16.5286ZM9.66681 7.01395C9.66681 6.27862 10.2648 5.68062 11.0001 5.68062C11.0368 5.68056 11.0734 5.67722 11.1095 5.67062C11.7921 5.71995 12.3335 6.30395 12.3335 7.01395V11.0139C12.3335 11.1286 12.3141 11.2373 12.2861 11.3433L9.66681 8.72395V7.01395ZM7.00014 11.0139H5.66681C5.66681 13.7286 7.70681 15.9713 10.3335 16.3013V17.6806H11.6668V16.3006C12.1768 16.2369 12.6748 16.0997 13.1455 15.8933L12.1068 14.8546C11.7472 14.9595 11.3747 15.0131 11.0001 15.0139C8.79414 15.0139 7.00014 13.2193 7.00014 11.0139Z"
        fill="white" />
    <path
        d="M8.34076 11.0881C8.36022 11.7674 8.63878 12.4136 9.11935 12.8942C9.59991 13.3747 10.2461 13.6533 10.9254 13.6727L8.34076 11.0881Z"
        fill="white" />
</svg>