<?xml version="1.0" standalone="no"?>
<!DOCTYPE svg PUBLIC "-//W3C//DTD SVG 1.1//EN" "http://www.w3.org/Graphics/SVG/1.1/DTD/svg11.dtd">
<svg width="22" height="22" viewBox="0 0 22 22" fill="none" xmlns="http://www.w3.org/2000/svg">
    <path
        d="M13.6668 11.0001V7.00006C13.6668 5.52206 12.4768 4.3194 11.0141 4.3194C10.9672 4.31968 10.9204 4.32527 10.8748 4.33606C10.1903 4.36925 9.54472 4.6643 9.07169 5.16016C8.59865 5.65603 8.33434 6.31476 8.33344 7.00006V11.0001C8.33344 12.4707 9.52943 13.6667 11.0001 13.6667C12.4708 13.6667 13.6668 12.4707 13.6668 11.0001ZM9.66677 11.0001V7.00006C9.66677 6.26473 10.2648 5.66673 11.0001 5.66673C11.0366 5.66674 11.0729 5.66339 11.1088 5.65673C11.7921 5.70673 12.3334 6.29006 12.3334 7.00006V11.0001C12.3334 11.7354 11.7354 12.3334 11.0001 12.3334C10.2648 12.3334 9.66677 11.7354 9.66677 11.0001Z"
        fill="white" />
    <path
        d="M6.9999 11H5.66656C5.66656 13.7147 7.70723 15.9573 10.3332 16.2873V17.6667H11.6666V16.2873C14.2926 15.9573 16.3332 13.7153 16.3332 11H14.9999C14.9999 13.206 13.2059 15 10.9999 15C8.7939 15 6.9999 13.206 6.9999 11Z"
        fill="white" />
    <circle cx="11" cy="11" r="10.5" stroke="white" />
</svg>