<?xml version="1.0" standalone="no"?>
<!DOCTYPE svg PUBLIC "-//W3C//DTD SVG 1.1//EN" "http://www.w3.org/Graphics/SVG/1.1/DTD/svg11.dtd">
<svg width="22" height="22" viewBox="0 0 22 22" fill="none" xmlns="http://www.w3.org/2000/svg">
    <circle cx="11" cy="11" r="10.5" fill="#D2D2D2" fill-opacity="0.8" stroke="white" />
    <path
        d="M12.3332 7.66662C12.7014 7.66662 12.9999 7.36814 12.9999 6.99995C12.9999 6.63176 12.7014 6.33328 12.3332 6.33328C11.965 6.33328 11.6666 6.63176 11.6666 6.99995C11.6666 7.36814 11.965 7.66662 12.3332 7.66662Z"
        fill="white" />
    <path
        d="M12.2001 10.6534L12.3334 10.6667C12.8868 10.6667 13.3334 10.2201 13.3334 9.66672C13.3334 9.11338 12.8868 8.66672 12.3334 8.66672C11.7801 8.66672 11.3334 9.11338 11.3334 9.66672L11.3468 9.80005C11.4068 10.2467 11.7534 10.5934 12.2001 10.6534ZM12.3334 5.33338C12.5201 5.33338 12.6668 5.18672 12.6668 5.00005C12.6668 4.81338 12.5201 4.66672 12.3334 4.66672C12.1468 4.66672 12.0001 4.81338 12.0001 5.00005C12.0001 5.18672 12.1468 5.33338 12.3334 5.33338ZM9.66677 5.33338C9.85344 5.33338 10.0001 5.18672 10.0001 5.00005C10.0001 4.81338 9.85344 4.66672 9.66677 4.66672C9.4801 4.66672 9.33344 4.81338 9.33344 5.00005C9.33344 5.18672 9.4801 5.33338 9.66677 5.33338Z"
        fill="white" />
    <path
        d="M15.0001 10.3333C15.3683 10.3333 15.6668 10.0349 15.6668 9.66667C15.6668 9.29848 15.3683 9 15.0001 9C14.6319 9 14.3334 9.29848 14.3334 9.66667C14.3334 10.0349 14.6319 10.3333 15.0001 10.3333Z"
        fill="white" />
    <path
        d="M15.0001 7.66662C15.3683 7.66662 15.6668 7.36814 15.6668 6.99995C15.6668 6.63176 15.3683 6.33328 15.0001 6.33328C14.6319 6.33328 14.3334 6.63176 14.3334 6.99995C14.3334 7.36814 14.6319 7.66662 15.0001 7.66662Z"
        fill="white" />
    <path
        d="M16.9999 9.99995C17.1866 9.99995 17.3332 9.85328 17.3332 9.66662C17.3332 9.47995 17.1866 9.33328 16.9999 9.33328C16.8132 9.33328 16.6666 9.47995 16.6666 9.66662C16.6666 9.85328 16.8132 9.99995 16.9999 9.99995Z"
        fill="white" />
    <path
        d="M9.66667 7.66662C10.0349 7.66662 10.3333 7.36814 10.3333 6.99995C10.3333 6.63176 10.0349 6.33328 9.66667 6.33328C9.29848 6.33328 9 6.63176 9 6.99995C9 7.36814 9.29848 7.66662 9.66667 7.66662Z"
        fill="white" />
    <path
        d="M15.0001 13C15.3683 13 15.6668 12.7016 15.6668 12.3334C15.6668 11.9652 15.3683 11.6667 15.0001 11.6667C14.6319 11.6667 14.3334 11.9652 14.3334 12.3334C14.3334 12.7016 14.6319 13 15.0001 13Z"
        fill="white" />
    <path
        d="M7.0001 15.6666C7.36829 15.6666 7.66677 15.3681 7.66677 14.9999C7.66677 14.6318 7.36829 14.3333 7.0001 14.3333C6.63191 14.3333 6.33344 14.6318 6.33344 14.9999C6.33344 15.3681 6.63191 15.6666 7.0001 15.6666Z"
        fill="white" />
    <path
        d="M12.3332 16.6667C12.1466 16.6667 11.9999 16.8133 11.9999 17C11.9999 17.1867 12.1466 17.3333 12.3332 17.3333C12.5199 17.3333 12.6666 17.1867 12.6666 17C12.6666 16.8133 12.5199 16.6667 12.3332 16.6667ZM16.9999 12C16.8132 12 16.6666 12.1467 16.6666 12.3333C16.6666 12.52 16.8132 12.6667 16.9999 12.6667C17.1866 12.6667 17.3332 12.52 17.3332 12.3333C17.3332 12.1467 17.1866 12 16.9999 12ZM4.9999 12C4.81323 12 4.66656 12.1467 4.66656 12.3333C4.66656 12.52 4.81323 12.6667 4.9999 12.6667C5.18656 12.6667 5.33323 12.52 5.33323 12.3333C5.33323 12.1467 5.18656 12 4.9999 12Z"
        fill="white" />
    <path
        d="M9.66667 15.6666C10.0349 15.6666 10.3333 15.3681 10.3333 14.9999C10.3333 14.6318 10.0349 14.3333 9.66667 14.3333C9.29848 14.3333 9 14.6318 9 14.9999C9 15.3681 9.29848 15.6666 9.66667 15.6666Z"
        fill="white" />
    <path
        d="M4.9999 9.33328C4.81323 9.33328 4.66656 9.47995 4.66656 9.66662C4.66656 9.85328 4.81323 9.99995 4.9999 9.99995C5.18656 9.99995 5.33323 9.85328 5.33323 9.66662C5.33323 9.47995 5.18656 9.33328 4.9999 9.33328ZM9.66656 16.6666C9.4799 16.6666 9.33323 16.8133 9.33323 16.9999C9.33323 17.1866 9.4799 17.3333 9.66656 17.3333C9.85323 17.3333 9.9999 17.1866 9.9999 16.9999C9.9999 16.8133 9.85323 16.6666 9.66656 16.6666Z"
        fill="white" />
    <path
        d="M7.0001 13C7.36829 13 7.66677 12.7016 7.66677 12.3334C7.66677 11.9652 7.36829 11.6667 7.0001 11.6667C6.63191 11.6667 6.33344 11.9652 6.33344 12.3334C6.33344 12.7016 6.63191 13 7.0001 13Z"
        fill="white" />
    <path
        d="M4.66656 6.51327L6.9999 8.84661L7.18656 9.03327L6.9999 8.99994C6.63323 8.99994 6.33323 9.29994 6.33323 9.66661C6.33323 10.0333 6.63323 10.3333 6.9999 10.3333C7.36656 10.3333 7.66656 10.0333 7.66656 9.66661C7.66656 9.59994 7.64656 9.53994 7.62656 9.47994L9.4999 11.3533C9.02656 11.4266 8.66656 11.8399 8.66656 12.3333C8.66656 12.8866 9.11323 13.3333 9.66656 13.3333C10.1599 13.3333 10.5732 12.9733 10.6466 12.4999L12.5199 14.3733C12.4603 14.3498 12.3972 14.3363 12.3332 14.3333C11.9666 14.3333 11.6666 14.6333 11.6666 14.9999C11.6666 15.3666 11.9666 15.6666 12.3332 15.6666C12.6999 15.6666 12.9999 15.3666 12.9999 14.9999C12.9999 14.9333 12.9799 14.8733 12.9599 14.8133L15.4799 17.3333H15.4866L16.4266 16.3933L5.60656 5.57327L4.66656 6.51327Z"
        fill="white" />
</svg>