<?xml version="1.0" standalone="no"?>
<!DOCTYPE svg PUBLIC "-//W3C//DTD SVG 1.1//EN" "http://www.w3.org/Graphics/SVG/1.1/DTD/svg11.dtd">
<svg width="22" height="22" viewBox="0 0 22 22" fill="none" xmlns="http://www.w3.org/2000/svg">
    <circle cx="11" cy="11" r="10.5" stroke="white" />
    <path
        d="M6.9999 11.6667C6.63323 11.6667 6.33323 11.9667 6.33323 12.3334C6.33323 12.7001 6.63323 13.0001 6.9999 13.0001C7.36656 13.0001 7.66656 12.7001 7.66656 12.3334C7.66656 11.9667 7.36656 11.6667 6.9999 11.6667ZM6.9999 14.3334C6.63323 14.3334 6.33323 14.6334 6.33323 15.0001C6.33323 15.3667 6.63323 15.6667 6.9999 15.6667C7.36656 15.6667 7.66656 15.3667 7.66656 15.0001C7.66656 14.6334 7.36656 14.3334 6.9999 14.3334ZM6.9999 9.00005C6.63323 9.00005 6.33323 9.30005 6.33323 9.66672C6.33323 10.0334 6.63323 10.3334 6.9999 10.3334C7.36656 10.3334 7.66656 10.0334 7.66656 9.66672C7.66656 9.30005 7.36656 9.00005 6.9999 9.00005ZM4.9999 9.33338C4.81323 9.33338 4.66656 9.48005 4.66656 9.66672C4.66656 9.85338 4.81323 10.0001 4.9999 10.0001C5.18656 10.0001 5.33323 9.85338 5.33323 9.66672C5.33323 9.48005 5.18656 9.33338 4.9999 9.33338ZM6.9999 6.33338C6.63323 6.33338 6.33323 6.63338 6.33323 7.00005C6.33323 7.36672 6.63323 7.66672 6.9999 7.66672C7.36656 7.66672 7.66656 7.36672 7.66656 7.00005C7.66656 6.63338 7.36656 6.33338 6.9999 6.33338ZM16.9999 10.0001C17.1866 10.0001 17.3332 9.85338 17.3332 9.66672C17.3332 9.48005 17.1866 9.33338 16.9999 9.33338C16.8132 9.33338 16.6666 9.48005 16.6666 9.66672C16.6666 9.85338 16.8132 10.0001 16.9999 10.0001ZM12.3332 7.66672C12.6999 7.66672 12.9999 7.36672 12.9999 7.00005C12.9999 6.63338 12.6999 6.33338 12.3332 6.33338C11.9666 6.33338 11.6666 6.63338 11.6666 7.00005C11.6666 7.36672 11.9666 7.66672 12.3332 7.66672ZM12.3332 5.33338C12.5199 5.33338 12.6666 5.18672 12.6666 5.00005C12.6666 4.81338 12.5199 4.66672 12.3332 4.66672C12.1466 4.66672 11.9999 4.81338 11.9999 5.00005C11.9999 5.18672 12.1466 5.33338 12.3332 5.33338ZM4.9999 12.0001C4.81323 12.0001 4.66656 12.1467 4.66656 12.3334C4.66656 12.5201 4.81323 12.6667 4.9999 12.6667C5.18656 12.6667 5.33323 12.5201 5.33323 12.3334C5.33323 12.1467 5.18656 12.0001 4.9999 12.0001ZM9.66656 16.6667C9.4799 16.6667 9.33323 16.8134 9.33323 17.0001C9.33323 17.1867 9.4799 17.3334 9.66656 17.3334C9.85323 17.3334 9.9999 17.1867 9.9999 17.0001C9.9999 16.8134 9.85323 16.6667 9.66656 16.6667ZM9.66656 5.33338C9.85323 5.33338 9.9999 5.18672 9.9999 5.00005C9.9999 4.81338 9.85323 4.66672 9.66656 4.66672C9.4799 4.66672 9.33323 4.81338 9.33323 5.00005C9.33323 5.18672 9.4799 5.33338 9.66656 5.33338ZM9.66656 7.66672C10.0332 7.66672 10.3332 7.36672 10.3332 7.00005C10.3332 6.63338 10.0332 6.33338 9.66656 6.33338C9.2999 6.33338 8.9999 6.63338 8.9999 7.00005C8.9999 7.36672 9.2999 7.66672 9.66656 7.66672ZM9.66656 11.3334C9.11323 11.3334 8.66656 11.7801 8.66656 12.3334C8.66656 12.8867 9.11323 13.3334 9.66656 13.3334C10.2199 13.3334 10.6666 12.8867 10.6666 12.3334C10.6666 11.7801 10.2199 11.3334 9.66656 11.3334ZM14.9999 11.6667C14.6332 11.6667 14.3332 11.9667 14.3332 12.3334C14.3332 12.7001 14.6332 13.0001 14.9999 13.0001C15.3666 13.0001 15.6666 12.7001 15.6666 12.3334C15.6666 11.9667 15.3666 11.6667 14.9999 11.6667ZM14.9999 14.3334C14.6332 14.3334 14.3332 14.6334 14.3332 15.0001C14.3332 15.3667 14.6332 15.6667 14.9999 15.6667C15.3666 15.6667 15.6666 15.3667 15.6666 15.0001C15.6666 14.6334 15.3666 14.3334 14.9999 14.3334ZM14.9999 9.00005C14.6332 9.00005 14.3332 9.30005 14.3332 9.66672C14.3332 10.0334 14.6332 10.3334 14.9999 10.3334C15.3666 10.3334 15.6666 10.0334 15.6666 9.66672C15.6666 9.30005 15.3666 9.00005 14.9999 9.00005ZM14.9999 6.33338C14.6332 6.33338 14.3332 6.63338 14.3332 7.00005C14.3332 7.36672 14.6332 7.66672 14.9999 7.66672C15.3666 7.66672 15.6666 7.36672 15.6666 7.00005C15.6666 6.63338 15.3666 6.33338 14.9999 6.33338ZM16.9999 12.0001C16.8132 12.0001 16.6666 12.1467 16.6666 12.3334C16.6666 12.5201 16.8132 12.6667 16.9999 12.6667C17.1866 12.6667 17.3332 12.5201 17.3332 12.3334C17.3332 12.1467 17.1866 12.0001 16.9999 12.0001ZM12.3332 14.3334C11.9666 14.3334 11.6666 14.6334 11.6666 15.0001C11.6666 15.3667 11.9666 15.6667 12.3332 15.6667C12.6999 15.6667 12.9999 15.3667 12.9999 15.0001C12.9999 14.6334 12.6999 14.3334 12.3332 14.3334ZM12.3332 16.6667C12.1466 16.6667 11.9999 16.8134 11.9999 17.0001C11.9999 17.1867 12.1466 17.3334 12.3332 17.3334C12.5199 17.3334 12.6666 17.1867 12.6666 17.0001C12.6666 16.8134 12.5199 16.6667 12.3332 16.6667ZM9.66656 8.66672C9.11323 8.66672 8.66656 9.11338 8.66656 9.66672C8.66656 10.2201 9.11323 10.6667 9.66656 10.6667C10.2199 10.6667 10.6666 10.2201 10.6666 9.66672C10.6666 9.11338 10.2199 8.66672 9.66656 8.66672ZM9.66656 14.3334C9.2999 14.3334 8.9999 14.6334 8.9999 15.0001C8.9999 15.3667 9.2999 15.6667 9.66656 15.6667C10.0332 15.6667 10.3332 15.3667 10.3332 15.0001C10.3332 14.6334 10.0332 14.3334 9.66656 14.3334ZM12.3332 11.3334C11.7799 11.3334 11.3332 11.7801 11.3332 12.3334C11.3332 12.8867 11.7799 13.3334 12.3332 13.3334C12.8866 13.3334 13.3332 12.8867 13.3332 12.3334C13.3332 11.7801 12.8866 11.3334 12.3332 11.3334ZM12.3332 8.66672C11.7799 8.66672 11.3332 9.11338 11.3332 9.66672C11.3332 10.2201 11.7799 10.6667 12.3332 10.6667C12.8866 10.6667 13.3332 10.2201 13.3332 9.66672C13.3332 9.11338 12.8866 8.66672 12.3332 8.66672Z"
        fill="white" />
</svg>