<svg width="20" height="20" viewBox="0 0 20 20" fill="none" xmlns="http://www.w3.org/2000/svg">
<path d="M16.6667 7.5H9.16667C8.24619 7.5 7.5 8.24619 7.5 9.16667V16.6667C7.5 17.5871 8.24619 18.3333 9.16667 18.3333H16.6667C17.5871 18.3333 18.3333 17.5871 18.3333 16.6667V9.16667C18.3333 8.24619 17.5871 7.5 16.6667 7.5Z" stroke="black" stroke-width="2" stroke-linecap="round" stroke-linejoin="round"/>
<path d="M4.16699 12.4998H3.33366C2.89163 12.4998 2.46771 12.3242 2.15515 12.0117C1.84259 11.6991 1.66699 11.2752 1.66699 10.8332V3.33317C1.66699 2.89114 1.84259 2.46722 2.15515 2.15466C2.46771 1.8421 2.89163 1.6665 3.33366 1.6665H10.8337C11.2757 1.6665 11.6996 1.8421 12.0122 2.15466C12.3247 2.46722 12.5003 2.89114 12.5003 3.33317V4.1665" stroke="black" stroke-width="2" stroke-linecap="round" stroke-linejoin="round"/>
</svg>
