<svg width="22" height="19" viewBox="0 0 22 19" fill="none" xmlns="http://www.w3.org/2000/svg">
  <path
    d="M17.6 19L14.3 15.6471L17.6 12.2941V14.5294H22V16.7647H17.6V19ZM8.8 0C9.96695 0 11.0861 0.471007 11.9113 1.3094C12.7364 2.1478 13.2 3.28491 13.2 4.47059C13.2 5.65626 12.7364 6.79337 11.9113 7.63177C11.0861 8.47017 9.96695 8.94118 8.8 8.94118C7.63305 8.94118 6.51389 8.47017 5.68873 7.63177C4.86357 6.79337 4.4 5.65626 4.4 4.47059C4.4 3.28491 4.86357 2.1478 5.68873 1.3094C6.51389 0.471007 7.63305 0 8.8 0ZM8.8 11.1765C10.065 11.1765 11.275 11.3106 12.364 11.5565C11.4751 12.7284 10.9952 14.1675 11 15.6471C11 16.4294 11.132 17.1782 11.374 17.8824H0V15.6471C0 13.1771 3.938 11.1765 8.8 11.1765Z"
    fill="#68D6DD" />
</svg>