<svg width="24" height="18" viewBox="0 0 24 18" fill="none" xmlns="http://www.w3.org/2000/svg">
  <path
    d="M15.2727 11.25C12.36 11.25 6.54545 12.7463 6.54545 15.75V18H24V15.75C24 12.7463 18.1855 11.25 15.2727 11.25ZM15.2727 9C16.43 9 17.5399 8.52589 18.3583 7.68198C19.1766 6.83807 19.6364 5.69347 19.6364 4.5C19.6364 3.30653 19.1766 2.16193 18.3583 1.31802C17.5399 0.474106 16.43 0 15.2727 0C14.1154 0 13.0055 0.474106 12.1872 1.31802C11.3688 2.16193 10.9091 3.30653 10.9091 4.5C10.9091 5.69347 11.3688 6.83807 12.1872 7.68198C13.0055 8.52589 14.1154 9 15.2727 9ZM4.36364 10.44L7.03636 12.1163L6.32727 8.955L8.72727 6.84L5.57455 6.55875L4.36364 3.58875L3.13091 6.55875L0 6.84L2.37818 8.955L1.63636 12.1163L4.36364 10.44Z"
    fill="#68D6DD" />
</svg>