<svg width="24" height="24" viewBox="0 0 24 24" fill="none" xmlns="http://www.w3.org/2000/svg">
  <circle cx="12" cy="12" r="12" fill="url(#paint0_linear_47_128)"/>
  <path d="M11.9999 5.3335C15.6818 5.3335 18.6666 8.31826 18.6666 12.0002V16.6668C18.6666 17.7714 17.7712 18.6668 16.6666 18.6668H14.6666C14.2984 18.6668 13.9999 18.3684 13.9999 18.0002V14.0002C13.9999 13.632 14.2984 13.3335 14.6666 13.3335H17.6666V12.0002C17.6666 8.87055 15.1295 6.3335 11.9999 6.3335C8.87031 6.3335 6.33325 8.87055 6.33325 12.0002V13.3335H9.33325C9.70144 13.3335 9.99992 13.632 9.99992 14.0002V18.0002C9.99992 18.3684 9.70144 18.6668 9.33325 18.6668H7.33325C6.22868 18.6668 5.33325 17.7714 5.33325 16.6668V12.0002C5.33325 8.31826 8.31802 5.3335 11.9999 5.3335Z" fill="white" fill-opacity="0.7"/>
  <defs>
    <linearGradient id="paint0_linear_47_128" x1="24" y1="19.579" x2="0.817163" y2="19.1265" gradientUnits="userSpaceOnUse">
      <stop stop-color="#056CF2"/>
      <stop offset="1" stop-color="#74D6D7"/>
    </linearGradient>
  </defs>
</svg>
