<svg width="14" height="14" viewBox="0 0 14 14" fill="none" xmlns="http://www.w3.org/2000/svg">
  <path d="M6.99992 0.333496C10.6818 0.333496 13.6666 3.31826 13.6666 7.00016V11.6668C13.6666 12.7714 12.7712 13.6668 11.6666 13.6668H9.66659C9.2984 13.6668 8.99992 13.3684 8.99992 13.0002V9.00016C8.99992 8.63197 9.2984 8.3335 9.66659 8.3335H12.6666V7.00016C12.6666 3.87055 10.1295 1.3335 6.99992 1.3335C3.87031 1.3335 1.33325 3.87055 1.33325 7.00016V8.3335H4.33325C4.70144 8.3335 4.99992 8.63197 4.99992 9.00016V13.0002C4.99992 13.3684 4.70144 13.6668 4.33325 13.6668H2.33325C1.22868 13.6668 0.333252 12.7714 0.333252 11.6668V7.00016C0.333252 3.31826 3.31802 0.333496 6.99992 0.333496Z" fill="white" fill-opacity="0.7"/>
</svg>
