<svg width="24" height="24" viewBox="0 0 24 24" fill="none" xmlns="http://www.w3.org/2000/svg">
  <path
    d="M3.5 18V12.4C3.5 10.1722 4.39553 8.03561 5.98959 6.4603C7.58365 4.885 9.74566 4 12 4C14.2543 4 16.4163 4.885 18.0104 6.4603C19.6045 8.03561 20.5 10.1722 20.5 12.4V18"
    stroke="#9B51E0" stroke-width="2" stroke-linecap="round" stroke-linejoin="round" />
  <path
    d="M20.5 18.2857C20.5 18.7404 20.301 19.1764 19.9468 19.4979C19.5925 19.8194 19.1121 20 18.6111 20H17.6667C17.1657 20 16.6853 19.8194 16.331 19.4979C15.9768 19.1764 15.7778 18.7404 15.7778 18.2857V15.7143C15.7778 15.2596 15.9768 14.8236 16.331 14.5021C16.6853 14.1806 17.1657 14 17.6667 14H20.5V18.2857ZM3.5 18.2857C3.5 18.7404 3.69901 19.1764 4.05324 19.4979C4.40748 19.8194 4.88792 20 5.38889 20H6.33333C6.8343 20 7.31474 19.8194 7.66898 19.4979C8.02321 19.1764 8.22222 18.7404 8.22222 18.2857V15.7143C8.22222 15.2596 8.02321 14.8236 7.66898 14.5021C7.31474 14.1806 6.8343 14 6.33333 14H3.5V18.2857Z"
    stroke="#9B51E0" stroke-width="2" stroke-linecap="round" stroke-linejoin="round" />
</svg>