<svg width="16" height="16" viewBox="0 0 16 16" fill="none" xmlns="http://www.w3.org/2000/svg">
  <path d="M7.99992 1.3335C11.6818 1.3335 14.6666 4.31826 14.6666 8.00016V12.6668C14.6666 13.7714 13.7712 14.6668 12.6666 14.6668H10.6666C10.2984 14.6668 9.99992 14.3684 9.99992 14.0002V10.0002C9.99992 9.63197 10.2984 9.3335 10.6666 9.3335H13.6666V8.00016C13.6666 4.87055 11.1295 2.3335 7.99992 2.3335C4.87031 2.3335 2.33325 4.87055 2.33325 8.00016V9.3335H5.33325C5.70144 9.3335 5.99992 9.63197 5.99992 10.0002V14.0002C5.99992 14.3684 5.70144 14.6668 5.33325 14.6668H3.33325C2.22868 14.6668 1.33325 13.7714 1.33325 12.6668V8.00016C1.33325 4.31826 4.31802 1.3335 7.99992 1.3335Z" fill="#A0A2A5"/>
</svg>
