<?xml version="1.0" standalone="no"?>
<!DOCTYPE svg PUBLIC "-//W3C//DTD SVG 1.1//EN" "http://www.w3.org/Graphics/SVG/1.1/DTD/svg11.dtd">
<svg width="22" height="22" viewBox="0 0 22 22" fill="none" xmlns="http://www.w3.org/2000/svg">
  <path
    d="M8.63923 3.73056C8.33102 3.73056 8.02707 3.80255 7.75159 3.94078C7.47612 4.07902 7.23673 4.27968 7.05252 4.52678C6.8683 4.77389 6.74434 5.0606 6.69052 5.36407C6.63669 5.66755 6.65449 5.9794 6.74249 6.27479L7.95349 10.3351L6.64639 13.3757C6.60315 13.476 6.58549 13.5855 6.59503 13.6944C6.60456 13.8032 6.64097 13.908 6.701 13.9993C6.76103 14.0906 6.84279 14.1655 6.93895 14.2174C7.0351 14.2693 7.14264 14.2965 7.2519 14.2965L10.3242 14.2956L10.3242 18.2999L10.9838 19.2338L11.6444 18.3009L11.6434 14.2956L14.7157 14.2965C14.8249 14.2966 14.9324 14.2695 15.0286 14.2177C15.1248 14.1659 15.2066 14.0911 15.2667 13.9999C15.3268 13.9087 15.3634 13.804 15.373 13.6952C15.3827 13.5865 15.3652 13.477 15.3221 13.3766L14.0169 10.3304L15.2251 6.27479C15.3131 5.9794 15.3309 5.66755 15.2771 5.36407C15.2233 5.0606 15.0993 4.77389 14.9151 4.52678C14.7309 4.27968 14.4915 4.07902 14.216 3.94078C13.9405 3.80255 13.6366 3.73056 13.3284 3.73056L8.63923 3.73056Z"
    fill="#056CF2" />
  <circle cx="11" cy="11" r="10.5" stroke="#056CF2" />
</svg>