<?xml version="1.0" standalone="no"?>
<!DOCTYPE svg PUBLIC "-//W3C//DTD SVG 1.1//EN" "http://www.w3.org/Graphics/SVG/1.1/DTD/svg11.dtd">
<svg width="22" height="22" viewBox="0 0 22 22" fill="none" xmlns="http://www.w3.org/2000/svg">
  <path
    d="M8.85385 4.3914C8.57366 4.3914 8.29734 4.45684 8.04691 4.58251C7.79648 4.70818 7.57885 4.8906 7.41139 5.11524C7.24392 5.33987 7.13123 5.60052 7.08229 5.87641C7.03336 6.1523 7.04954 6.4358 7.12954 6.70433L8.23045 10.3955L7.04218 13.1597C7.00287 13.2509 6.98682 13.3504 6.99548 13.4494C7.00415 13.5483 7.03725 13.6436 7.09182 13.7266C7.1464 13.8096 7.22073 13.8777 7.30814 13.9249C7.39555 13.972 7.49331 13.9968 7.59264 13.9968L10.3856 13.996L10.3856 17.6363L10.9853 18.4853L11.5858 17.6371L11.5849 13.996L14.3779 13.9968C14.4772 13.9968 14.575 13.9722 14.6624 13.9252C14.7498 13.8781 14.8242 13.8101 14.8788 13.7272C14.9335 13.6443 14.9667 13.5491 14.9755 13.4502C14.9843 13.3513 14.9684 13.2518 14.9292 13.1605L13.7427 10.3913L14.841 6.70433C14.921 6.4358 14.9372 6.1523 14.8883 5.87641C14.8393 5.60052 14.7266 5.33987 14.5592 5.11524C14.3917 4.8906 14.1741 4.70818 13.9237 4.58251C13.6732 4.45684 13.3969 4.3914 13.1167 4.3914L8.85385 4.3914ZM8.27965 6.36167C8.25299 6.27221 8.24759 6.17776 8.26387 6.08584C8.28015 5.99392 8.31767 5.90707 8.37343 5.8322C8.42919 5.75733 8.50165 5.69652 8.58506 5.65459C8.66846 5.61266 8.7605 5.59078 8.85385 5.5907L13.1167 5.5907C13.2101 5.59078 13.3021 5.61266 13.3855 5.65459C13.4689 5.69652 13.5414 5.75733 13.5971 5.8322C13.6529 5.90707 13.6904 5.99392 13.7067 6.08584C13.723 6.17776 13.7176 6.27221 13.6909 6.36167L12.5306 10.2564C12.4907 10.3907 12.4991 10.5348 12.5544 10.6635L13.4678 12.7967L8.50356 12.7958L9.41873 10.6695C9.47388 10.5404 9.48198 10.396 9.44163 10.2615L8.27965 6.36167Z"
    fill="white" />
  <circle cx="11" cy="11" r="10.5" stroke="white" />
</svg>