<svg width="24" height="24" viewBox="0 0 24 24" fill="none" xmlns="http://www.w3.org/2000/svg">
  <circle cx="12" cy="12" r="12" fill="url(#paint0_linear_1712_2151)"/>
  <path d="M18.6666 16.2594C18.6666 17.589 17.5888 18.6668 16.2592 18.6668H7.74066C6.41108 18.6668 5.33325 17.589 5.33325 16.2594V7.7409C5.33325 6.41133 6.41108 5.3335 7.74066 5.3335H16.2592C17.5888 5.3335 18.6666 6.41133 18.6666 7.7409V16.2594ZM15.7036 8.85201C15.7036 8.57076 15.4946 8.33832 15.2235 8.30153L15.1481 8.29646H8.85177L8.77638 8.30153C8.50522 8.33832 8.29621 8.57076 8.29621 8.85201C8.29621 9.13327 8.50522 9.36571 8.77638 9.4025L8.85177 9.40757H15.1481L15.2235 9.4025C15.4946 9.36571 15.7036 9.13327 15.7036 8.85201ZM15.7036 15.1483C15.7036 14.8671 15.4946 14.6346 15.2235 14.5978L15.1481 14.5928H8.85177L8.77638 14.5978C8.50522 14.6346 8.29621 14.8671 8.29621 15.1483C8.29621 15.4296 8.50522 15.662 8.77638 15.6988L8.85177 15.7039H15.1481L15.2235 15.6988C15.4946 15.662 15.7036 15.4296 15.7036 15.1483ZM15.7036 12.0002C15.7036 11.7189 15.4946 11.4865 15.2235 11.4497L15.1481 11.4446H8.85177L8.77638 11.4497C8.50522 11.4865 8.29621 11.7189 8.29621 12.0002C8.29621 12.2814 8.50522 12.5139 8.77638 12.5506L8.85177 12.5557H15.1481L15.2235 12.5506C15.4946 12.5139 15.7036 12.2814 15.7036 12.0002Z" fill="white" fill-opacity="0.7"/>
  <defs>
    <linearGradient id="paint0_linear_1712_2151" x1="24" y1="19.579" x2="0.817163" y2="19.1265" gradientUnits="userSpaceOnUse">
      <stop stop-color="#056CF2"/>
      <stop offset="1" stop-color="#74D6D7"/>
    </linearGradient>
  </defs>
</svg>
