<svg width="16" height="16" viewBox="0 0 16 16" fill="none" xmlns="http://www.w3.org/2000/svg">
  <path d="M14.6666 12.2594C14.6666 13.589 13.5888 14.6668 12.2592 14.6668H3.74066C2.41108 14.6668 1.33325 13.589 1.33325 12.2594V3.7409C1.33325 2.41133 2.41108 1.3335 3.74066 1.3335H12.2592C13.5888 1.3335 14.6666 2.41133 14.6666 3.7409V12.2594ZM11.7036 4.85201C11.7036 4.57076 11.4946 4.33832 11.2235 4.30153L11.1481 4.29646H4.85177L4.77638 4.30153C4.50522 4.33832 4.29621 4.57076 4.29621 4.85201C4.29621 5.13327 4.50522 5.36571 4.77638 5.4025L4.85177 5.40757H11.1481L11.2235 5.4025C11.4946 5.36571 11.7036 5.13327 11.7036 4.85201ZM11.7036 11.1483C11.7036 10.8671 11.4946 10.6346 11.2235 10.5978L11.1481 10.5928H4.85177L4.77638 10.5978C4.50522 10.6346 4.29621 10.8671 4.29621 11.1483C4.29621 11.4296 4.50522 11.662 4.77638 11.6988L4.85177 11.7039H11.1481L11.2235 11.6988C11.4946 11.662 11.7036 11.4296 11.7036 11.1483ZM11.7036 8.00016C11.7036 7.71891 11.4946 7.48647 11.2235 7.44968L11.1481 7.44461H4.85177L4.77638 7.44968C4.50522 7.48647 4.29621 7.71891 4.29621 8.00016C4.29621 8.28142 4.50522 8.51386 4.77638 8.55065L4.85177 8.55572H11.1481L11.2235 8.55065C11.4946 8.51386 11.7036 8.28142 11.7036 8.00016Z" fill="white" fill-opacity="0.7"/>
</svg>
