<svg width="14" height="14" viewBox="0 0 14 14" fill="none" xmlns="http://www.w3.org/2000/svg">
  <path d="M13.6666 11.2594C13.6666 12.589 12.5888 13.6668 11.2592 13.6668H2.74066C1.41108 13.6668 0.333252 12.589 0.333252 11.2594V2.7409C0.333252 1.41133 1.41108 0.333496 2.74066 0.333496H11.2592C12.5888 0.333496 13.6666 1.41133 13.6666 2.7409V11.2594ZM10.7036 3.85201C10.7036 3.57076 10.4946 3.33832 10.2235 3.30153L10.1481 3.29646H3.85177L3.77638 3.30153C3.50522 3.33832 3.29621 3.57076 3.29621 3.85201C3.29621 4.13327 3.50522 4.36571 3.77638 4.4025L3.85177 4.40757H10.1481L10.2235 4.4025C10.4946 4.36571 10.7036 4.13327 10.7036 3.85201ZM10.7036 10.1483C10.7036 9.86705 10.4946 9.63461 10.2235 9.59783L10.1481 9.59276H3.85177L3.77638 9.59783C3.50522 9.63461 3.29621 9.86705 3.29621 10.1483C3.29621 10.4296 3.50522 10.662 3.77638 10.6988L3.85177 10.7039H10.1481L10.2235 10.6988C10.4946 10.662 10.7036 10.4296 10.7036 10.1483ZM10.7036 7.00016C10.7036 6.71891 10.4946 6.48647 10.2235 6.44968L10.1481 6.44461H3.85177L3.77638 6.44968C3.50522 6.48647 3.29621 6.71891 3.29621 7.00016C3.29621 7.28142 3.50522 7.51386 3.77638 7.55065L3.85177 7.55572H10.1481L10.2235 7.55065C10.4946 7.51386 10.7036 7.28142 10.7036 7.00016Z" fill="white" fill-opacity="0.7"/>
</svg>
