<svg width="14" height="14" viewBox="0 0 14 14" fill="none" xmlns="http://www.w3.org/2000/svg">
  <path d="M13.6666 11.2593C13.6666 12.5889 12.5888 13.6667 11.2592 13.6667H2.74072C1.41115 13.6667 0.333313 12.5889 0.333313 11.2593V2.74078C0.333313 1.41121 1.41115 0.333374 2.74072 0.333374H11.2592C12.5888 0.333374 13.6666 1.41121 13.6666 2.74078V11.2593ZM10.7037 3.85189C10.7037 3.57064 10.4947 3.3382 10.2235 3.30141L10.1481 3.29634H3.85183L3.77645 3.30141C3.50528 3.3382 3.29628 3.57064 3.29628 3.85189C3.29628 4.13315 3.50528 4.36559 3.77645 4.40238L3.85183 4.40745H10.1481L10.2235 4.40238C10.4947 4.36559 10.7037 4.13315 10.7037 3.85189ZM10.7037 10.1482C10.7037 9.86693 10.4947 9.63449 10.2235 9.5977L10.1481 9.59263H3.85183L3.77645 9.5977C3.50528 9.63449 3.29628 9.86693 3.29628 10.1482C3.29628 10.4294 3.50528 10.6619 3.77645 10.6987L3.85183 10.7037H10.1481L10.2235 10.6987C10.4947 10.6619 10.7037 10.4294 10.7037 10.1482ZM10.7037 7.00004C10.7037 6.71878 10.4947 6.48634 10.2235 6.44956L10.1481 6.44448H3.85183L3.77645 6.44956C3.50528 6.48634 3.29628 6.71878 3.29628 7.00004C3.29628 7.2813 3.50528 7.51374 3.77645 7.55052L3.85183 7.5556H10.1481L10.2235 7.55052C10.4947 7.51374 10.7037 7.2813 10.7037 7.00004Z" fill="white" fill-opacity="0.7"/>
</svg>
