<svg width="24" height="24" viewBox="0 0 24 24" fill="none" xmlns="http://www.w3.org/2000/svg">
  <path
    d="M3 6.21427C3 5.3618 3.33865 4.54423 3.94144 3.94144C4.54423 3.33865 5.3618 3 6.21427 3H9.42855V6.21427C9.42855 6.72576 9.63173 7.2163 9.99341 7.57797C10.3551 7.93965 10.8456 8.14284 11.3571 8.14284H20.9999V17.7857C20.9999 18.6381 20.6613 19.4557 20.0585 20.0585C19.4557 20.6613 18.6381 20.9999 17.7857 20.9999H6.21427C5.3618 20.9999 4.54423 20.6613 3.94144 20.0585C3.33865 19.4557 3 18.6381 3 17.7857V6.21427ZM9.42855 13.2857C9.42855 12.9447 9.29309 12.6177 9.05197 12.3765C8.81085 12.1354 8.48383 12 8.14284 12C7.80185 12 7.47482 12.1354 7.2337 12.3765C6.99259 12.6177 6.85713 12.9447 6.85713 13.2857C6.85713 13.6267 6.99259 13.9537 7.2337 14.1948C7.47482 14.4359 7.80185 14.5714 8.14284 14.5714C8.48383 14.5714 8.81085 14.4359 9.05197 14.1948C9.29309 13.9537 9.42855 13.6267 9.42855 13.2857ZM12 14.5714C12.341 14.5714 12.668 14.4359 12.9091 14.1948C13.1502 13.9537 13.2857 13.6267 13.2857 13.2857C13.2857 12.9447 13.1502 12.6177 12.9091 12.3765C12.668 12.1354 12.341 12 12 12C11.659 12 11.3319 12.1354 11.0908 12.3765C10.8497 12.6177 10.7143 12.9447 10.7143 13.2857C10.7143 13.6267 10.8497 13.9537 11.0908 14.1948C11.3319 14.4359 11.659 14.5714 12 14.5714ZM17.1428 13.2857C17.1428 12.9447 17.0073 12.6177 16.7662 12.3765C16.5251 12.1354 16.1981 12 15.8571 12C15.5161 12 15.1891 12.1354 14.948 12.3765C14.7068 12.6177 14.5714 12.9447 14.5714 13.2857C14.5714 13.6267 14.7068 13.9537 14.948 14.1948C15.1891 14.4359 15.5161 14.5714 15.8571 14.5714C16.1981 14.5714 16.5251 14.4359 16.7662 14.1948C17.0073 13.9537 17.1428 13.6267 17.1428 13.2857Z"
    fill="#FFBD2E" />
  <path
    d="M21 6.85713V6.21427C21 5.3618 20.6614 4.54423 20.0586 3.94144C19.4558 3.33865 18.6382 3 17.7858 3H10.7144V6.21427C10.7144 6.38477 10.7821 6.54828 10.9026 6.66884C11.0232 6.7894 11.1867 6.85713 11.3572 6.85713H21Z"
    fill="#FFBD2E" />
</svg>