<svg width="14" height="14" viewBox="0 0 14 14" fill="none" xmlns="http://www.w3.org/2000/svg">
  <path d="M13.6667 11.2593C13.6667 12.5889 12.5889 13.6667 11.2593 13.6667H2.74078C1.41121 13.6667 0.333374 12.5889 0.333374 11.2593V2.74078C0.333374 1.41121 1.41121 0.333374 2.74078 0.333374H11.2593C12.5889 0.333374 13.6667 1.41121 13.6667 2.74078V11.2593ZM10.7037 3.85189C10.7037 3.57064 10.4947 3.3382 10.2236 3.30141L10.1482 3.29634H3.85189L3.77651 3.30141C3.50534 3.3382 3.29634 3.57064 3.29634 3.85189C3.29634 4.13315 3.50534 4.36559 3.77651 4.40238L3.85189 4.40745H10.1482L10.2236 4.40238C10.4947 4.36559 10.7037 4.13315 10.7037 3.85189ZM10.7037 10.1482C10.7037 9.86693 10.4947 9.63449 10.2236 9.5977L10.1482 9.59263H3.85189L3.77651 9.5977C3.50534 9.63449 3.29634 9.86693 3.29634 10.1482C3.29634 10.4294 3.50534 10.6619 3.77651 10.6987L3.85189 10.7037H10.1482L10.2236 10.6987C10.4947 10.6619 10.7037 10.4294 10.7037 10.1482ZM10.7037 7.00004C10.7037 6.71878 10.4947 6.48634 10.2236 6.44956L10.1482 6.44448H3.85189L3.77651 6.44956C3.50534 6.48634 3.29634 6.71878 3.29634 7.00004C3.29634 7.2813 3.50534 7.51374 3.77651 7.55052L3.85189 7.5556H10.1482L10.2236 7.55052C10.4947 7.51374 10.7037 7.2813 10.7037 7.00004Z" fill="#A0A2A5"/>
</svg>
