<svg width="24" height="24" viewBox="0 0 24 24" fill="none" xmlns="http://www.w3.org/2000/svg">
<circle cx="12" cy="12" r="12" fill="#FFBD2E"/>
<path fill-rule="evenodd" clip-rule="evenodd" d="M6.62763 6.62763C6.22576 7.02949 6 7.57453 6 8.14285V15.8571C6 16.4254 6.22576 16.9705 6.62763 17.3723C7.02949 17.7742 7.57453 18 8.14285 18H15.8571C16.4254 18 16.9705 17.7742 17.3723 17.3723C17.7742 16.9705 18 16.4254 18 15.8571V9.42856H11.5714C11.2304 9.42856 10.9034 9.2931 10.6623 9.05198C10.4212 8.81087 10.2857 8.48384 10.2857 8.14285V6H8.14285C7.57453 6 7.02949 6.22576 6.62763 6.62763ZM10.0346 12.251C10.1954 12.4118 10.2857 12.6298 10.2857 12.8571C10.2857 13.0844 10.1954 13.3025 10.0346 13.4632C9.8739 13.624 9.65589 13.7143 9.42856 13.7143C9.20123 13.7143 8.98321 13.624 8.82247 13.4632C8.66172 13.3025 8.57142 13.0844 8.57142 12.8571C8.57142 12.6298 8.66172 12.4118 8.82247 12.251C8.98321 12.0903 9.20123 12 9.42856 12C9.65589 12 9.8739 12.0903 10.0346 12.251ZM12.6061 13.4632C12.4453 13.624 12.2273 13.7143 12 13.7143C11.7726 13.7143 11.5546 13.624 11.3939 13.4632C11.2331 13.3025 11.1428 13.0844 11.1428 12.8571C11.1428 12.6298 11.2331 12.4118 11.3939 12.251C11.5546 12.0903 11.7726 12 12 12C12.2273 12 12.4453 12.0903 12.6061 12.251C12.7668 12.4118 12.8571 12.6298 12.8571 12.8571C12.8571 13.0844 12.7668 13.3025 12.6061 13.4632ZM15.1775 12.251C15.3382 12.4118 15.4285 12.6298 15.4285 12.8571C15.4285 13.0844 15.3382 13.3025 15.1775 13.4632C15.0167 13.624 14.7987 13.7143 14.5714 13.7143C14.3441 13.7143 14.1261 13.624 13.9653 13.4632C13.8046 13.3025 13.7143 13.0844 13.7143 12.8571C13.7143 12.6298 13.8046 12.4118 13.9653 12.251C14.1261 12.0903 14.3441 12 14.5714 12C14.7987 12 15.0167 12.0903 15.1775 12.251ZM18.0001 8.14285V8.57142H11.5715C11.4579 8.57142 11.3488 8.52627 11.2685 8.44589C11.1881 8.36552 11.1429 8.25651 11.1429 8.14285V6H15.8572C16.4255 6 16.9706 6.22576 17.3724 6.62763C17.7743 7.02949 18.0001 7.57453 18.0001 8.14285Z" fill="white" fill-opacity="0.7"/>
</svg>
